D:\school\WTK\thesis\model\3dpredictsim\Results\debug\Pog_s1_tmt_bCst_d00_k1000000_ig24_act_TTM_GRF.mot
nRows=27
nColumns=19

name D:\school\WTK\thesis\model\3dpredictsim\Results\debug\Pog_s1_tmt_bCst_d00_k1000000_ig24_act_TTM_GRF.mot
datacolumns 19
datarows 27
range 0.5792244632 0.8804211840
endheader
time 	ground_force_vx	ground_force_vy	ground_force_vz	ground_force_px	ground_force_py	ground_force_pz	1_ground_force_vx	1_ground_force_vy	1_ground_force_vz	1_ground_force_px	1_ground_force_py	1_ground_force_pz	ground_torque_x	ground_torque_y	ground_torque_z	1_ground_torque_x	1_ground_torque_y	1_ground_torque_z
        0.5792244632	      106.9464176344	      438.1474164385	        0.6862596755	        0.3838952638	        0.0000000000	        0.0359775987	      -55.8591346884	       39.2644730160	      -10.9649631708	        0.8844670309	        0.0000000000	       -0.0528247402	        0.0000000000	        0.0000000000	        0.0000000000	        0.0000000000	        0.0000000000	        0.0000000000	
        0.5908089524	       76.2174703561	      337.3999495623	        7.1474424699	        0.3907075206	        0.0000000000	        0.0332924040	     -113.4279588573	       98.2225942976	      -28.8012994286	        0.8954424588	        0.0000000000	       -0.0506561416	        0.0000000000	        0.0000000000	        0.0000000000	        0.0000000000	        0.0000000000	        0.0000000000	
        0.6023934417	       42.6889487413	      226.9006831184	       15.3072840877	        0.4027751586	        0.0000000000	        0.0281144205	      -98.9609918377	      220.6041415310	      -40.8352348687	        0.9029129282	        0.0000000000	       -0.0493095723	        0.0000000000	        0.0000000000	        0.0000000000	        0.0000000000	        0.0000000000	        0.0000000000	
        0.6139779309	       26.5502605657	      167.8529061976	       18.4373688038	        0.4118460903	        0.0000000000	        0.0237096472	      -56.2877579881	      424.4182977253	       -6.2378280800	        0.9078661955	        0.0000000000	       -0.0487226992	        0.0000000000	        0.0000000000	        0.0000000000	        0.0000000000	        0.0000000000	        0.0000000000	
        0.6255624202	       23.5189118615	      134.1963933044	       15.8092677244	        0.4120932579	        0.0000000000	        0.0236158825	      -76.3564136240	      666.9548787675	       13.0457882882	        0.9177025425	        0.0000000000	       -0.0507636041	        0.0000000000	        0.0000000000	        0.0000000000	        0.0000000000	        0.0000000000	        0.0000000000	
        0.6371469095	       14.4080735803	       88.2710921932	       14.4088078026	        0.4123449139	        0.0000000000	        0.0237232310	     -109.5093088657	      840.0286179207	       21.2691185807	        0.9254909745	        0.0000000000	       -0.0525632052	        0.0000000000	        0.0000000000	        0.0000000000	        0.0000000000	        0.0000000000	        0.0000000000	
        0.6487313987	        1.2908049618	       36.3923348476	        8.8723068606	        0.4120034145	        0.0000000000	        0.0238565261	     -123.0644282369	      896.2715940481	       22.8709538493	        0.9305049028	        0.0000000000	       -0.0536216220	        0.0000000000	        0.0000000000	        0.0000000000	        0.0000000000	        0.0000000000	        0.0000000000	
        0.6603158880	        0.3960751015	       -0.4116692478	       -0.0291446869	        0.0000000000	        0.0000000000	        0.0000000000	     -119.0976846085	      890.0506669680	       22.1382672197	        0.9343318150	        0.0000000000	       -0.0542035956	        0.0000000000	        0.0000000000	        0.0000000000	        0.0000000000	        0.0000000000	        0.0000000000	
        0.6719003773	        0.0015312930	       -0.0012741728	        0.0000660709	        0.0000000000	        0.0000000000	        0.0000000000	     -106.7907689861	      854.7212736680	       21.4815017698	        0.9383539400	        0.0000000000	       -0.0544167700	        0.0000000000	        0.0000000000	        0.0000000000	        0.0000000000	        0.0000000000	        0.0000000000	
        0.6834848665	        0.0012067421	       -0.0008591389	        0.0000780653	        0.0000000000	        0.0000000000	        0.0000000000	      -94.2324085942	      809.1846964157	       20.4566300207	        0.9429065116	        0.0000000000	       -0.0543740392	        0.0000000000	        0.0000000000	        0.0000000000	        0.0000000000	        0.0000000000	        0.0000000000	
        0.6950693558	        0.0113125129	       -0.0071653240	        0.0008214529	        0.0000000000	        0.0000000000	        0.0000000000	      -84.7751285409	      770.2797508292	       19.9297501613	        0.9483852249	        0.0000000000	       -0.0541021457	        0.0000000000	        0.0000000000	        0.0000000000	        0.0000000000	        0.0000000000	        0.0000000000	
        0.7066538450	       -0.0815068539	        0.0470849315	       -0.0062464040	        0.0000000000	        0.0000000000	        0.0000000000	      -75.5696679128	      735.6701011714	       19.8304691535	        0.9539497313	        0.0000000000	       -0.0537046718	        0.0000000000	        0.0000000000	        0.0000000000	        0.0000000000	        0.0000000000	        0.0000000000	
        0.7182383343	       -0.1295690480	        0.0702398252	       -0.0097097573	        0.0000000000	        0.0000000000	        0.0000000000	      -66.0241240796	      702.5507887927	       19.9852664214	        0.9590069182	        0.0000000000	       -0.0533690799	        0.0000000000	        0.0000000000	        0.0000000000	        0.0000000000	        0.0000000000	        0.0000000000	
        0.7298228236	       -0.0772114658	        0.0397316082	       -0.0057529800	        0.0000000000	        0.0000000000	        0.0000000000	      -56.9708304468	      673.6405756922	       20.3586761772	        0.9637637786	        0.0000000000	       -0.0531176392	        0.0000000000	        0.0000000000	        0.0000000000	        0.0000000000	        0.0000000000	        0.0000000000	
        0.7414073128	       -0.0494233688	        0.0243623129	       -0.0036827336	        0.0000000000	        0.0000000000	        0.0000000000	      -48.8671524767	      649.9183039712	       20.7240776167	        0.9684320322	        0.0000000000	       -0.0529233600	        0.0000000000	        0.0000000000	        0.0000000000	        0.0000000000	        0.0000000000	        0.0000000000	
        0.7529918021	       -0.0385637888	        0.0183356003	       -0.0028842698	        0.0000000000	        0.0000000000	        0.0000000000	      -41.2420558454	      630.5124767594	       21.2047601951	        0.9732714851	        0.0000000000	       -0.0527388582	        0.0000000000	        0.0000000000	        0.0000000000	        0.0000000000	        0.0000000000	        0.0000000000	
        0.7645762914	       -0.0372915851	        0.0171922470	       -0.0027804295	        0.0000000000	        0.0000000000	        0.0000000000	      -34.5566979382	      615.6527497208	       21.4485379994	        0.9787931731	        0.0000000000	       -0.0525003469	        0.0000000000	        0.0000000000	        0.0000000000	        0.0000000000	        0.0000000000	        0.0000000000	
        0.7761607806	       -0.0438609861	        0.0196792959	       -0.0032480397	        0.0000000000	        0.0000000000	        0.0000000000	      -29.5375902580	      605.4183418508	       21.4969057420	        0.9849827516	        0.0000000000	       -0.0521614909	        0.0000000000	        0.0000000000	        0.0000000000	        0.0000000000	        0.0000000000	        0.0000000000	
        0.7877452699	       -0.0612588593	        0.0268060981	       -0.0044784751	        0.0000000000	        0.0000000000	        0.0000000000	      -25.3678232131	      598.8578956303	       21.1500358664	        0.9916014795	        0.0000000000	       -0.0517272864	        0.0000000000	        0.0000000000	        0.0000000000	        0.0000000000	        0.0000000000	        0.0000000000	
        0.7993297592	       -0.0973308297	        0.0416228217	       -0.0069408631	        0.0000000000	        0.0000000000	        0.0000000000	      -21.7300695170	      594.2642843634	       20.5631074575	        0.9984310117	        0.0000000000	       -0.0512146968	        0.0000000000	        0.0000000000	        0.0000000000	        0.0000000000	        0.0000000000	        0.0000000000	
        0.8109142484	       -0.1667680622	        0.0698457638	       -0.0114773604	        0.0000000000	        0.0000000000	        0.0000000000	      -18.8757977284	      591.2955530672	       19.8108993933	        1.0052555403	        0.0000000000	       -0.0506542844	        0.0000000000	        0.0000000000	        0.0000000000	        0.0000000000	        0.0000000000	        0.0000000000	
        0.8224987377	       -0.2910654132	        0.1196777314	       -0.0192143104	        0.0000000000	        0.0000000000	        0.0000000000	      -16.5102572562	      589.3044098577	       19.4260124276	        1.0119020577	        0.0000000000	       -0.0500738518	        0.0000000000	        0.0000000000	        0.0000000000	        0.0000000000	        0.0000000000	        0.0000000000	
        0.8340832269	       -0.4923949179	        0.1992467410	       -0.0311081626	        0.0000000000	        0.0000000000	        0.0000000000	      -14.2380336332	      587.0600629353	       19.3703648956	        1.0183287610	        0.0000000000	       -0.0494884354	        0.0000000000	        0.0000000000	        0.0000000000	        0.0000000000	        0.0000000000	        0.0000000000	
        0.8456677162	       -0.7804037031	        0.3115317516	       -0.0472453669	        0.0000000000	        0.0000000000	        0.0000000000	      -11.9113471164	      584.3076915194	       19.4103658752	        1.0245778085	        0.0000000000	       -0.0488996529	        0.0000000000	        0.0000000000	        0.0000000000	        0.0000000000	        0.0000000000	        0.0000000000	
        0.8572522055	       -1.1335235340	        0.4475088200	       -0.0657867081	        0.0000000000	        0.0000000000	        0.0000000000	       -9.6262695935	      580.7552393826	       19.4569102670	        1.0306204076	        0.0000000000	       -0.0483131267	        0.0000000000	        0.0000000000	        0.0000000000	        0.0000000000	        0.0000000000	        0.0000000000	
        0.8688366947	       -1.4993376212	        0.5867893413	       -0.0832115539	        0.0000000000	        0.0000000000	        0.0000000000	       -7.2330848555	      576.9251246572	       19.2551890133	        1.0365026468	        0.0000000000	       -0.0477250093	        0.0000000000	        0.0000000000	        0.0000000000	        0.0000000000	        0.0000000000	        0.0000000000	
        0.8804211840	       -1.8162574742	        0.7060861004	       -0.0954719516	        0.0000000000	        0.0000000000	        0.0000000000	       -5.0455845155	      572.6960217249	       18.6493358616	        1.0422225289	        0.0000000000	       -0.0471338312	        0.0000000000	        0.0000000000	        0.0000000000	        0.0000000000	        0.0000000000	        0.0000000000	
